<svg width="201" height="50" viewBox="0 0 201 50" fill="none" xmlns="http://www.w3.org/2000/svg">
<g id="Group 19">
<path id="Vector" d="M23.9536 20.5207L23.8566 42.0748C23.8566 42.2979 23.8579 42.3685 23.8579 42.5011L39.2131 35.6659C40.4018 35.133 41.1628 33.9779 41.1628 32.7075V12.3544C41.1628 11.1633 40.4925 10.0665 39.4161 9.49513L22.2707 0.399295C21.2557 -0.139837 20.0248 -0.132401 19.0161 0.417885L2.24739 9.56577C1.19017 10.1433 0.535156 11.229 0.535156 12.4064V32.8166C0.535156 34.0176 1.21571 35.1218 2.30741 35.6895L15.5086 42.5532V34.0337L7.74801 29.8681V15.05L20.6389 7.9335L33.8299 15.05V29.8669L29.5768 32.2564V16.2138C29.5768 15.5793 29.0469 15.0649 28.3932 15.0649L21.1803 15.0277C20.8177 15.0277 20.5866 15.2843 20.4117 15.5929L12.2297 29.6525L12.1173 29.852H17.5401C18.1389 29.852 18.6905 29.5372 18.9816 29.029L23.9498 20.5194" fill="#005EB8"/>
<path id="Vector_2" d="M179.082 34.5727V15.6432C179.082 14.6409 179.923 13.8291 180.961 13.8291H200.465L196.53 20.6273C196.188 21.1595 195.584 21.5408 194.935 21.5397H187.012L186.963 32.7672C186.959 33.7663 186.981 34.0962 186.981 34.5738H179.082V34.5727Z" fill="#222223"/>
<path id="Vector_3" d="M55.0625 34.5738V15.6497C55.0625 14.6441 55.9025 13.8291 56.9391 13.8291H74.5689C75.6054 13.8291 76.4455 14.6441 76.4455 15.6497V34.5738H68.4954V21.5397H62.9286V34.5738H55.0636H55.0625Z" fill="#222223"/>
<path id="Vector_4" d="M112.141 21.5425H117.192L117.194 26.9771L112.141 26.9707V13.8302H106.119C105.082 13.8302 104.242 14.644 104.242 15.6485V34.5738H125.091V15.6474C125.091 14.643 124.251 13.8291 123.214 13.8291H112.141V21.5414V21.5425Z" fill="#222223"/>
<path id="Vector_5" d="M162.926 21.5418H167.977L167.979 26.9767L162.926 26.9703V13.8291H156.906C155.868 13.8291 155.027 14.6441 155.027 15.6497V34.5738H175.876V15.6497C175.876 14.6441 175.035 13.8291 173.997 13.8291H162.926V21.5418Z" fill="#222223"/>
<path id="Vector_6" d="M143.368 21.5408L136.237 33.6421C135.906 34.2172 135.279 34.5738 134.599 34.5738H126.695L126.853 34.2943L138.376 14.6226C138.621 14.1889 138.948 13.8291 139.46 13.8291H149.408C150.445 13.8291 151.286 14.6419 151.286 15.6443V34.5738H143.37L143.368 21.5397V21.5408Z" fill="#222223"/>
<path id="Vector_7" d="M87.8127 34.4674L99.0584 34.4727C100.235 34.4727 100.471 34.4674 101.035 34.4674V15.6925C101.035 14.6676 100.143 13.8291 99.0528 13.8291H93.1561C92.4964 13.8291 92.1745 14.202 91.8208 14.7262L87.7537 21.5001H92.934L92.9362 26.9039L87.7537 26.9093V13.8302H81.6349C80.5444 13.8302 79.6523 14.6687 79.6523 15.6936V27.3717L79.6546 49.4674L87.7537 36.0474V34.4684" fill="#222223"/>
</g>
</svg>
